<svg width="42" height="42" viewBox="0 0 42 42" fill="none" xmlns="http://www.w3.org/2000/svg">
<path d="M0 14.7423C0 8.07858 5.74032 2.71964 12.6287 2.99923C18.9431 3.27883 24.0137 8.35818 24.1572 14.4627C24.2528 17.7247 22.9134 20.707 20.8087 22.8972C20.6173 23.0836 20.6173 23.4098 20.8087 23.5962L22.1959 24.9476C22.8178 25.5534 22.3872 26.5786 21.5262 26.5786L11.4328 26.532C5.07061 26.1592 0 21.0332 0 14.7423Z" fill="#0081C5"/>
<path d="M3.92285 33.9419C3.92285 37.3903 6.88868 40.1397 10.4285 39.9999C13.6814 39.8601 16.2645 37.2505 16.3602 34.0817C16.408 32.4041 15.7383 30.8664 14.6381 29.748C14.5424 29.6548 14.5424 29.4684 14.6381 29.3752L15.3557 28.6762C15.6905 28.35 15.4513 27.8374 15.0208 27.8374H9.85451C6.506 28.0704 3.92285 30.7266 3.92285 33.9419Z" fill="#FF585B"/>
<path d="M41.9997 19.9623C41.9997 12.5529 35.6375 6.54161 27.9359 6.9144C20.904 7.2406 15.3072 12.8325 15.1158 19.6827C15.0202 23.3174 16.4552 26.626 18.847 29.0492C19.0384 29.2822 19.0384 29.6084 18.847 29.7948L17.3163 31.2859C16.6466 31.9383 17.1249 33.1033 18.0817 33.1033L29.2753 33.0567C36.355 32.6373 41.9997 26.9522 41.9997 19.9623Z" fill="#B9CC36"/>
<path d="M22.1485 24.9483L20.7613 23.597C20.5699 23.4106 20.5699 23.0844 20.7613 22.898C22.9139 20.7078 24.2054 17.7254 24.1098 14.4635C24.0619 12.2267 23.3444 10.1763 22.1963 8.40552C17.8911 10.5491 15.0688 14.8362 14.9731 19.636C14.9253 22.1524 15.595 24.7619 16.8865 26.4861H21.431C22.3398 26.5793 22.7704 25.5541 22.1485 24.9483Z" fill="#55A383"/>
<path d="M24.1088 21.0339C23.1999 21.0339 22.5302 21.9193 22.8172 22.8047C23.5826 24.9949 25.6874 26.5327 28.1749 26.5327C30.6623 26.5327 32.7671 24.9949 33.5325 22.8047C33.8195 21.9659 33.1976 21.0339 32.2409 21.0339H24.1088Z" fill="white"/>
</svg>
